<svg width="40" height="40" viewBox="0 0 40 40" fill="none" xmlns="http://www.w3.org/2000/svg">
<circle cx="20" cy="20" r="20" fill="#BBBBBB"/>
<path d="M13.469 20.688L22.219 11.938C22.313 11.844 23.063 11.094 24.25 10.688C25.906 10.157 27.594 10.594 28.938 11.938C30.313 13.282 30.719 14.938 30.188 16.594C29.813 17.782 29.032 18.594 28.938 18.688L19.532 28.094C17.907 29.719 13.844 31.813 10.094 28.094C6.37496 24.375 8.49996 20.281 10.094 18.688L20.188 8.56299C20.563 8.18799 21.157 8.18799 21.532 8.56299C21.907 8.93799 21.907 9.53199 21.532 9.90699L11.469 20.032C11.313 20.157 8.15596 23.438 11.469 26.751C14.688 29.97 17.844 27.095 18.188 26.751L27.594 17.313C27.594 17.313 28.125 16.782 28.375 16.032C28.688 15.032 28.469 14.157 27.594 13.282C25.719 11.407 23.906 12.969 23.563 13.282L14.813 22.001C14.5 22.314 14.282 22.845 14.813 23.376C15.344 23.907 15.844 23.657 16.157 23.376L22.22 17.313C22.595 16.969 23.22 16.969 23.564 17.313C23.939 17.688 23.939 18.313 23.564 18.688L17.501 24.719C16.657 25.532 14.938 26.188 13.47 24.719C11.97 23.25 12.625 21.5 13.469 20.688Z" fill="black"/>
</svg>
